<svg width="302" height="142" viewBox="0 0 302 142" fill="none" xmlns="http://www.w3.org/2000/svg">
<g filter="url(#filter0_d)">
<rect x="20" y="23" width="92" height="92" rx="16" fill="white"/>
</g>
<mask id="mask0" mask-type="alpha" maskUnits="userSpaceOnUse" x="20" y="23" width="92" height="92">
<rect x="20" y="23" width="92" height="92" rx="16" fill="white"/>
</mask>
<g mask="url(#mask0)">
<path d="M99.8912 42.1227C96.2534 38.209 91.8298 35.1086 86.9107 33.025C81.9916 30.9415 76.6881 29.9219 71.3482 30.0331C56.7721 30.4225 43.8041 39.1795 32.8167 48.7642C21.8292 58.3489 11.5385 69.2112 -1.66282 75.3915C-18.0774 83.1123 -36.7917 82.6062 -55.0983 80.4484L48.957 305.84L162.687 253.335C161.674 250.81 159.959 248.629 157.744 247.049C153.871 244.254 149.126 243.003 144.762 241.062C135.996 237.079 128.787 230.314 124.253 221.816C122.425 218.424 121.07 214.797 120.226 211.038C119.437 207.223 118.998 203.343 118.915 199.449C118.505 188.329 119.601 176.964 114.843 167.059C113.322 164.021 111.436 161.18 109.226 158.6C109.151 158.499 109.071 158.403 108.985 158.311C108.951 158.264 108.914 158.219 108.873 158.177C107.976 157.099 107.043 156.052 106.098 155.01C106.003 154.912 105.916 154.816 105.826 154.715C105.605 154.467 105.372 154.21 105.153 153.983L103.184 151.851L103.044 151.701C102.649 151.263 102.248 150.827 101.846 150.391C101.846 150.391 101.833 150.361 101.827 150.35C101.247 149.711 100.673 149.069 100.101 148.419C99.39 149.617 98.3551 150.59 97.1158 151.225C94.322 152.608 90.9066 151.872 88.139 150.436C85.3715 149.001 82.9833 146.919 80.2406 145.43C78.1822 144.309 75.9479 143.535 73.8737 142.457C71.7995 141.38 69.8007 139.925 68.6964 137.858C67.1202 134.923 67.6064 131.293 68.7208 128.158C69.8352 125.024 71.5262 122.087 72.3478 118.859C73.3046 115.104 73.1444 110.816 75.6136 107.834C78.0829 104.852 82.487 104.175 86.4266 104.27C89.8336 104.339 93.3665 104.743 96.6193 103.891C96.7871 103.528 96.9634 103.168 97.1398 102.808C102.086 92.6714 108.274 82.7679 109.539 71.5673C110.094 66.2574 109.521 60.8896 107.859 55.8155C106.196 50.7413 103.481 46.0752 99.8912 42.1227Z" fill="#F2F4F8"/>
<path d="M78.0394 83.5678C71.3979 93.3237 61.918 100.842 55.0325 110.425C48.4655 119.553 44.5219 132.062 49.2887 142.063C49.5142 142.551 49.7452 143.052 50.044 143.513C50.5489 144.391 51.1179 145.231 51.7462 146.026C52.5449 147.053 53.4288 148.011 54.3885 148.89C54.718 149.202 55.0652 149.506 55.4155 149.801C57.8189 151.764 60.4073 153.488 63.1443 154.95L64.4387 155.652C65.2086 156.068 65.9816 156.475 66.7664 156.876L67.705 157.364C71.5683 159.364 75.4723 161.36 78.9199 163.867C79.2119 164.082 79.5093 164.309 79.7953 164.526C80.9263 165.386 81.9958 166.324 82.996 167.332L83.4088 167.763C90.2368 175.042 92.3838 185.488 93.2826 195.425C94.1813 205.363 94.1923 215.603 97.8186 224.895C103.626 239.792 119.186 250.314 135.173 250.166C139.438 250.132 143.806 249.393 148 250.27C151.436 250.99 154.852 253.196 156.148 256.311L-24.0307 316.192L-43.8385 104.822C-38.6949 104.982 -33.554 104.438 -28.5577 103.208C-11.7293 99.0728 2.76336 88.1626 14.391 75.3123C20.6067 68.4517 26.1489 60.9668 32.8205 54.5526C39.492 48.1385 47.5698 42.7457 56.6879 41.2136C65.8059 39.6814 76.0935 42.7998 81.3247 50.4372C87.9925 60.1815 84.6836 73.8178 78.0394 83.5678Z" fill="white"/>
<path d="M29.6241 94.3674C31.9001 98.1073 31.0341 103.99 34.9232 106C38.1905 107.683 42.0486 104.974 44.1337 101.948C46.2188 98.922 47.8032 95.2134 51.1055 93.6031C54.4079 91.9928 58.9563 92.8345 61.5348 90.1662C63.4967 88.1253 63.3951 84.8451 62.5598 82.1394C61.7245 79.4336 60.2784 76.8884 59.9394 74.0677C59.5474 70.8074 60.6744 67.5455 60.567 64.2681C60.4596 60.9906 58.2795 57.2422 55.0066 57.4324C50.5024 57.6912 48.8051 64.7719 44.3049 64.9932C38.8264 65.2591 37.56 61.6814 33.4558 67.3816C30.8971 70.9118 30.0022 72.9456 26.2617 75.415C23.2016 77.4417 20.9298 78.3477 20.923 82.5989C20.9264 88.773 26.8873 89.8764 29.6241 94.3674Z" fill="#F2F4F8"/>
<path d="M57.204 41.8843C57.7141 43.0201 58.808 43.7043 59.9618 43.7415C60.2709 44.735 60.583 45.8893 60.8394 47.1365C58.4525 47.7918 56.2206 48.8246 54.2143 50.1726C53.6526 49.2993 53.2051 48.4111 52.8694 47.6566C53.4203 47.1619 53.5747 46.3294 53.1934 45.6484C52.7527 44.861 51.7657 44.5762 50.9888 45.012C50.2118 45.4478 49.9391 46.4395 50.3799 47.2265C50.6959 47.7914 51.2938 48.0918 51.8933 48.0586C52.2419 48.9066 52.6174 49.9912 52.8518 51.1633C51.2086 52.4531 49.7488 53.9655 48.5135 55.6556C46.7815 54.8818 45.1933 54.0128 43.8491 53.2019C43.782 53.4455 43.6966 53.6847 43.5828 53.9158C43.3247 54.4395 42.9651 54.8797 42.541 55.2298C43.8428 56.1001 45.3132 57.1848 46.7607 58.461C45.8206 60.242 45.1043 62.1605 44.6615 64.1844C43.2419 64.2396 41.8408 64.0556 40.7536 63.8448C40.6639 63.1087 40.0716 62.5045 39.296 62.4266C38.3998 62.3367 37.6016 62.9834 37.5135 63.8711C37.4253 64.759 38.0806 65.5516 38.9768 65.6414C39.6199 65.7059 40.208 65.3876 40.5239 64.8765C41.6107 65.1201 43.0061 65.5318 44.318 66.2065C44.2112 67.056 44.1457 67.919 44.1346 68.7955C44.1139 70.4304 44.2692 72.0261 44.5764 73.5676C43.0026 74.2124 41.4626 74.6956 40.1376 75.0502C39.366 73.8521 37.8336 73.3072 36.4286 73.825C34.8048 74.4232 33.9687 76.2127 34.5608 77.8217C35.1529 79.4306 36.949 80.2498 38.5728 79.6513C39.7393 79.2214 40.4954 78.1766 40.6116 77.0262C41.9457 76.7109 43.5565 76.4084 45.2859 76.2477C45.997 78.3992 47.0181 80.4097 48.2996 82.2256C47.4577 83.0793 46.5401 83.795 45.767 84.3338C45.1778 83.8843 44.3326 83.8882 43.7368 84.3903C43.048 84.9711 42.9546 85.9954 43.5287 86.6783C44.1027 87.3612 45.1262 87.4438 45.8153 86.8631C46.3094 86.4462 46.4913 85.8021 46.3458 85.2187C47.1496 84.6921 48.2032 84.088 49.3745 83.629C50.6322 85.1472 52.0816 86.4999 53.6884 87.6493C52.7227 89.7046 51.5956 91.579 50.5647 93.1165C50.8033 93.1961 51.0368 93.2968 51.2614 93.4222C51.7637 93.7027 52.1891 94.0826 52.5221 94.5293C53.6606 92.9914 55.1292 91.2163 56.8722 89.5572C58.494 90.3555 60.2239 90.9681 62.0366 91.3633C61.9981 92.2703 61.8861 93.1252 61.7603 93.8449C61.027 93.9466 60.4347 94.5501 60.3713 95.3278C60.2978 96.2268 60.9579 97.0156 61.8457 97.0892C62.7334 97.1629 63.5127 96.4935 63.5863 95.5944C63.639 94.9492 63.3107 94.3655 62.7946 94.0579C62.9408 93.3433 63.1569 92.4949 63.4701 91.6225C64.4891 91.7769 65.5285 91.8693 66.5877 91.8837C67.7225 91.8991 68.8383 91.8283 69.931 91.6823C70.6929 93.5882 71.2208 95.4863 71.5796 97.0748C70.355 97.7991 69.7528 99.3113 70.2152 100.738C70.7498 102.387 72.5028 103.296 74.1305 102.767C75.7582 102.239 76.6443 100.474 76.1094 98.8248C75.7253 97.6403 74.7119 96.8413 73.5687 96.6792C73.26 95.1004 72.984 93.1418 72.9373 91.0663C76.3759 90.1186 79.4913 88.3848 82.0737 86.062C83.2363 86.767 84.2705 87.5756 85.0813 88.28C84.7323 89.1009 84.9888 90.0883 85.7507 90.6364C86.6314 91.2702 87.8518 91.077 88.4767 90.2052C89.1016 89.3335 88.8944 88.113 88.0138 87.4791C87.3811 87.0239 86.5741 86.9975 85.9377 87.3405C85.1812 86.6439 84.2954 85.7347 83.4894 84.6763C85.9946 81.9957 87.8608 78.7059 88.8418 75.0473C90.2791 75.1092 91.6208 75.2522 92.8139 75.4263C92.7799 75.2025 92.7604 74.9748 92.7633 74.7431C92.7659 74.5365 92.7839 74.3278 92.8167 74.1226C92.8967 73.6218 93.066 73.1582 93.2994 72.7384C92.1256 72.3865 90.8356 71.8973 89.5173 71.2206C89.5716 70.6239 89.6103 70.0227 89.6181 69.4135C89.6549 66.509 89.1415 63.727 88.1848 61.1591C89.1518 60.216 90.2376 59.4455 91.1321 58.8871C91.6979 59.3658 92.5421 59.4049 93.1626 58.9333C93.8801 58.3882 94.0246 57.3701 93.4859 56.6587C92.9471 55.9477 91.9288 55.8132 91.2116 56.3583C90.6969 56.7495 90.4829 57.3836 90.5988 57.9737C89.7609 58.4635 88.6649 59.0201 87.4575 59.4199C86.0663 56.4633 84.0597 53.8516 81.5997 51.7543C81.9659 50.589 82.3639 49.4989 82.7543 48.5216C82.5044 48.4938 82.2552 48.4439 82.0095 48.3684C81.4593 48.1989 80.9657 47.9136 80.5488 47.546C80.1929 48.3286 79.7808 49.1731 79.3125 50.046C75.8168 47.7507 71.6531 46.3868 67.1656 46.3259C65.8415 46.3079 64.5447 46.41 63.2799 46.6104C62.7173 45.3801 62.2592 44.1882 61.8965 43.1324C63.0353 42.2792 63.4704 40.7106 62.856 39.3423C62.146 37.7609 60.305 37.048 58.7446 37.75C57.1835 38.4518 56.494 40.3029 57.204 41.8843ZM71.2665 60.5641C70.8116 60.9161 70.1579 60.8321 69.8061 60.3762C69.4544 59.9202 69.5377 59.2655 69.9926 58.9135C70.4474 58.5616 71.1012 58.6456 71.4529 59.1015C71.8047 59.5571 71.7214 60.2122 71.2665 60.5641ZM66.1069 67.1162C65.7552 66.6603 65.8385 66.0055 66.2934 65.6536C66.7483 65.3017 67.402 65.3856 67.7537 65.8416C68.1055 66.2975 68.0222 66.9523 67.5673 67.3042C67.1124 67.6561 66.4587 67.5718 66.1069 67.1162ZM72.8432 67.0319C72.1961 67.533 71.2654 67.4131 70.7649 66.7646C70.2641 66.116 70.3829 65.1838 71.03 64.6831C71.6771 64.1819 72.6078 64.3018 73.1083 64.9503C73.6091 65.5989 73.4903 66.5311 72.8432 67.0319ZM63.4057 64.2837C63.9066 64.9322 63.7877 65.8644 63.1406 66.3652C62.4936 66.8663 61.5628 66.7465 61.0623 66.0979C60.5615 65.4493 60.6804 64.5175 61.3274 64.0164C61.9745 63.5153 62.9049 63.6351 63.4057 64.2837ZM57.5712 67.1454C56.3221 68.1122 54.5262 67.8812 53.5598 66.6294C52.5935 65.3774 52.8227 63.5787 54.0715 62.6118C55.3207 61.6449 57.1166 61.876 58.0829 63.1277C59.0496 64.3798 58.8204 66.1785 57.5712 67.1454ZM55.3971 56.4608C55.3918 56.8743 55.0528 57.2047 54.6403 57.1991C54.2274 57.1935 53.8973 56.8537 53.9025 56.4405C53.9078 56.0269 54.2467 55.6965 54.6593 55.7021C55.0722 55.7077 55.4023 56.0472 55.3971 56.4608ZM66.1969 60.0265C65.8452 59.5705 65.9285 58.9158 66.3833 58.5638C66.8382 58.2119 67.492 58.2959 67.8437 58.7518C68.1955 59.2078 68.1122 59.8625 67.6573 60.2145C67.2024 60.5664 66.5487 60.4821 66.1969 60.0265ZM60.5324 60.1992C60.2799 59.872 60.3397 59.4018 60.6662 59.1492C60.9926 58.8962 61.4621 58.9568 61.7146 59.284C61.967 59.6113 61.9072 60.0815 61.5808 60.3341C61.2544 60.5867 60.7852 60.5264 60.5324 60.1992ZM61.7767 54.3878C62.0292 54.715 61.9694 55.1853 61.6429 55.4379C61.3165 55.6905 60.847 55.6302 60.5945 55.303C60.3421 54.9758 60.4019 54.5055 60.7283 54.2529C61.0548 54 61.5243 54.0603 61.7767 54.3878ZM56.8509 53.4054C56.8445 53.9076 56.4332 54.3088 55.9319 54.302C55.4306 54.2952 55.0297 53.8826 55.036 53.3808C55.0424 52.8787 55.454 52.4774 55.955 52.4842C56.4559 52.491 56.8572 52.9033 56.8509 53.4054ZM61.3336 51.8911C60.9373 52.1979 60.367 52.1247 60.0604 51.7271C59.7537 51.3296 59.8263 50.7587 60.223 50.4519C60.6193 50.1451 61.1896 50.2183 61.4962 50.6158C61.8029 51.0131 61.7303 51.5839 61.3336 51.8911ZM50.8061 56.3984C50.8114 55.9849 51.1504 55.6545 51.5629 55.6601C51.9758 55.6657 52.3059 56.0055 52.3007 56.4187C52.2954 56.8323 51.9565 57.1627 51.5439 57.1571C51.1314 57.1518 50.8009 56.812 50.8061 56.3984ZM47.8066 63.4708C48.3078 63.4776 48.7088 63.8903 48.7024 64.392C48.6961 64.8941 48.2848 65.2954 47.7835 65.2886C47.2822 65.2818 46.8812 64.8692 46.8876 64.3674C46.8937 63.8653 47.3053 63.464 47.8066 63.4708ZM45.7541 67.4274C45.7593 67.0138 46.0983 66.6834 46.5109 66.689C46.9237 66.6946 47.2539 67.0344 47.2486 67.4477C47.2434 67.8612 46.9044 68.1916 46.4919 68.186C46.079 68.1804 45.7489 67.8406 45.7541 67.4274ZM75.0486 69.9363C76.0149 71.1884 75.7857 72.9871 74.5366 73.9539C73.2874 74.9208 71.4915 74.6898 70.5252 73.438C69.5588 72.186 69.788 70.3873 71.0372 69.4204C72.286 68.4535 74.0819 68.6846 75.0486 69.9363ZM47.5707 75.7415C46.9958 75.7337 46.5357 75.2606 46.543 74.6847C46.5503 74.1088 47.0223 73.6483 47.5972 73.6561C48.1721 73.6639 48.6323 74.1371 48.6249 74.713C48.6176 75.2889 48.1457 75.7493 47.5707 75.7415ZM52.234 74.3208C51.4159 74.3096 50.761 73.6362 50.7714 72.8168C50.7818 71.9974 51.4536 71.3419 52.2716 71.3531C53.0897 71.3642 53.7446 72.0376 53.7342 72.857C53.7238 73.6764 53.052 74.3319 52.234 74.3208ZM64.5218 69.5139C65.3399 69.525 65.9948 70.1984 65.9844 71.0178C65.974 71.8372 65.3022 72.4927 64.4841 72.4816C63.6661 72.4705 63.0112 71.797 63.0216 70.9776C63.032 70.1582 63.7037 69.5028 64.5218 69.5139ZM61.2135 72.8928C61.5202 73.2901 61.4476 73.8612 61.0509 74.1681C60.6546 74.4749 60.0843 74.4017 59.7776 74.0041C59.471 73.6069 59.5436 73.0357 59.9402 72.7289C60.3369 72.422 60.9068 72.4956 61.2135 72.8928ZM46.9983 70.3589C47.0056 69.783 47.4776 69.3225 48.0525 69.3303C48.6275 69.3381 49.0876 69.8113 49.0803 70.3872C49.073 70.9631 48.601 71.4235 48.0261 71.4157C47.4511 71.4079 46.991 70.9348 46.9983 70.3589ZM49.1539 77.207C49.1612 76.6311 49.6332 76.1706 50.2081 76.1785C50.7831 76.1863 51.2432 76.6594 51.2359 77.2353C51.2286 77.8112 50.7566 78.2717 50.1817 78.2639C49.6067 78.2561 49.1466 77.7829 49.1539 77.207ZM53.0343 81.8879C53.3607 81.6353 53.8303 81.6956 54.0827 82.0228C54.3352 82.35 54.2754 82.8202 53.9489 83.0728C53.6225 83.3254 53.153 83.2651 52.9005 82.9379C52.648 82.6107 52.7078 82.1405 53.0343 81.8879ZM73.5877 85.0348C73.0868 84.3862 73.2057 83.454 73.8527 82.9532C74.4998 82.4521 75.4305 82.5719 75.931 83.2205C76.4319 83.8691 76.313 84.8013 75.666 85.302C75.0189 85.8028 74.0882 85.6833 73.5877 85.0348ZM69.5234 82.6535C69.1716 82.1975 69.2549 81.5427 69.7098 81.1908C70.1647 80.8389 70.8184 80.9228 71.1702 81.3788C71.5219 81.8347 71.4386 82.4895 70.9837 82.8414C70.5292 83.1934 69.8751 83.1091 69.5234 82.6535ZM67.561 81.0285C67.9127 81.4844 67.8294 82.1392 67.3745 82.4911C66.9197 82.843 66.2659 82.7591 65.9142 82.3031C65.5624 81.8472 65.6457 81.1924 66.1006 80.8405C66.5552 80.4886 67.2089 80.5728 67.561 81.0285ZM60.3834 81.4261C60.7099 81.1735 61.1794 81.2338 61.4318 81.561C61.6843 81.8882 61.6245 82.3585 61.2981 82.6111C60.9716 82.8637 60.5021 82.8034 60.2496 82.4762C59.9972 82.149 60.057 81.6787 60.3834 81.4261ZM56.8208 85.2265C57.2337 85.2321 57.5639 85.5719 57.5586 85.9851C57.5534 86.3987 57.2144 86.7291 56.8018 86.7235C56.389 86.7179 56.0588 86.378 56.0641 85.9648C56.069 85.5513 56.408 85.2209 56.8208 85.2265ZM67.471 88.1185C67.8227 88.5745 67.7395 89.2292 67.2846 89.5812C66.8297 89.9331 66.1759 89.8491 65.8242 89.3932C65.4724 88.9372 65.5557 88.2825 66.0106 87.9306C66.4655 87.5786 67.1189 87.6626 67.471 88.1185ZM63.5847 78.6301C63.233 78.1741 63.3162 77.5194 63.7711 77.1674C64.226 76.8155 64.8798 76.8995 65.2315 77.3554C65.5832 77.8113 65.5 78.4661 65.0451 78.818C64.5902 79.17 63.9364 79.0857 63.5847 78.6301ZM70.1415 78.473C69.4945 78.9741 68.5637 78.8543 68.0632 78.2057C67.5624 77.5571 67.6813 76.625 68.3283 76.1242C68.9754 75.6231 69.9061 75.7429 70.4066 76.3915C70.9075 77.04 70.7886 77.9719 70.1415 78.473ZM79.9045 66.1763C78.6554 67.1432 76.8595 66.9122 75.8932 65.6601C74.9268 64.408 75.156 62.6094 76.4048 61.6425C77.654 60.6756 79.4499 60.9066 80.4162 62.1587C81.3829 63.4108 81.1537 65.2095 79.9045 66.1763ZM87.1042 62.546C86.9862 63.1095 86.4342 63.4701 85.8715 63.3514C85.3089 63.2327 84.9484 62.6794 85.0664 62.116C85.1844 61.5525 85.7365 61.1919 86.2992 61.3106C86.8618 61.4296 87.2222 61.9826 87.1042 62.546ZM82.9781 54.9706C83.4685 55.0742 83.7827 55.5563 83.6797 56.0478C83.5768 56.5393 83.0958 56.8533 82.605 56.7497C82.1142 56.6461 81.8003 56.1641 81.9033 55.6726C82.0066 55.1814 82.4876 54.8671 82.9781 54.9706ZM80.4172 57.8178C80.821 57.9031 81.08 58.3001 80.995 58.7048C80.9101 59.1096 80.5141 59.3683 80.1099 59.2829C79.7058 59.1975 79.4471 58.8006 79.532 58.3958C79.6169 57.9914 80.0133 57.7327 80.4172 57.8178ZM78.6637 53.032C78.984 53.4185 78.9306 53.9915 78.545 54.312C78.1593 54.6325 77.5869 54.5785 77.267 54.1919C76.9467 53.8054 77.0001 53.2321 77.3857 52.9119C77.7713 52.5915 78.3435 52.6451 78.6637 53.032ZM74.5246 53.0162C74.2608 52.6978 74.3049 52.2258 74.6225 51.9621C74.9401 51.6985 75.4115 51.7428 75.6749 52.0611C75.9387 52.3795 75.8946 52.8516 75.577 53.1152C75.2593 53.3788 74.788 53.3346 74.5246 53.0162ZM71.869 48.7117C72.1327 49.0301 72.0886 49.5021 71.771 49.7658C71.4534 50.0294 70.9821 49.9851 70.7186 49.6668C70.4548 49.3484 70.4989 48.8763 70.8166 48.6127C71.1342 48.3491 71.6055 48.3933 71.869 48.7117ZM67.1931 52.0339C67.648 51.6819 68.3018 51.7659 68.6535 52.2219C69.0052 52.6778 68.922 53.3326 68.4671 53.6845C68.0122 54.0364 67.3584 53.9525 67.0067 53.4965C66.655 53.0409 66.7382 52.3861 67.1931 52.0339Z" fill="#FFA500"/>
<path d="M42.3332 53.6865C42.5492 53.2488 42.662 52.7808 42.6682 52.2957C42.6844 51.0298 41.9536 49.846 40.806 49.2796C39.164 48.4691 37.1773 49.1274 36.3771 50.7471C36.1611 51.1848 36.0483 51.6528 36.0421 52.1379C36.026 53.4039 36.7567 54.5876 37.9043 55.154C39.5464 55.9642 41.5334 55.3063 42.3332 53.6865Z" fill="#FFA500"/>
<path d="M84.6677 46.8083C85.4447 46.3915 86.0158 45.695 86.2764 44.8469C86.3708 44.5392 86.4207 44.2222 86.4247 43.9039C86.4433 42.4483 85.4934 41.1353 84.1152 40.7118C82.3866 40.181 80.5436 41.1715 80.0066 42.9202C79.9122 43.2279 79.8623 43.5449 79.8583 43.8632C79.8397 45.3188 80.7897 46.6315 82.1678 47.055C83.0045 47.3122 83.8924 47.2245 84.6677 46.8083Z" fill="#FFA500"/>
<path d="M94.087 73.8488C94.0602 74.0166 94.0455 74.1876 94.0433 74.3564C94.0213 76.0824 95.3093 77.5937 97.0397 77.8719C98.9734 78.1826 100.795 76.8831 101.101 74.9754C101.128 74.8075 101.143 74.6363 101.145 74.4678C101.167 72.7415 99.8788 71.2301 98.1484 70.9523C96.2147 70.6416 94.393 71.9408 94.087 73.8488Z" fill="#FFA500"/>
<path d="M52.2814 99.1228C52.5519 98.6376 52.6987 98.0902 52.7057 97.5399C52.7212 96.3286 52.0795 95.2131 51.0314 94.6287C50.2671 94.2026 49.3802 94.1031 48.5346 94.3478C47.6876 94.5934 46.9832 95.155 46.5515 95.93C46.2811 96.4152 46.1343 96.9626 46.1273 97.5131C46.1118 98.7245 46.7532 99.84 47.8013 100.424C49.3809 101.304 51.3909 100.72 52.2814 99.1228Z" fill="#FFA500"/>
</g>
<path d="M152.647 72.8955C152.481 75.1904 151.632 76.9971 150.099 78.3154C148.575 79.6338 146.563 80.293 144.063 80.293C141.329 80.293 139.176 79.375 137.604 77.5391C136.041 75.6934 135.26 73.1641 135.26 69.9512V68.6475C135.26 66.5967 135.621 64.79 136.344 63.2275C137.066 61.665 138.097 60.4688 139.435 59.6387C140.782 58.7988 142.345 58.3789 144.122 58.3789C146.583 58.3789 148.565 59.0381 150.069 60.3564C151.573 61.6748 152.442 63.5254 152.677 65.9082H148.282C148.175 64.5312 147.789 63.5352 147.125 62.9199C146.471 62.2949 145.47 61.9824 144.122 61.9824C142.657 61.9824 141.559 62.5098 140.826 63.5645C140.104 64.6094 139.732 66.2354 139.713 68.4424V70.0537C139.713 72.3584 140.06 74.043 140.753 75.1074C141.456 76.1719 142.56 76.7041 144.063 76.7041C145.421 76.7041 146.432 76.3965 147.096 75.7812C147.77 75.1562 148.155 74.1943 148.253 72.8955H152.647ZM154.97 71.9287C154.97 70.3564 155.272 68.9551 155.878 67.7246C156.483 66.4941 157.353 65.542 158.485 64.8682C159.628 64.1943 160.951 63.8574 162.455 63.8574C164.594 63.8574 166.337 64.5117 167.685 65.8203C169.042 67.1289 169.799 68.9062 169.955 71.1523L169.984 72.2363C169.984 74.668 169.306 76.6211 167.948 78.0957C166.591 79.5605 164.77 80.293 162.484 80.293C160.199 80.293 158.373 79.5605 157.006 78.0957C155.648 76.6309 154.97 74.6387 154.97 72.1191V71.9287ZM159.203 72.2363C159.203 73.7402 159.486 74.8926 160.053 75.6934C160.619 76.4844 161.43 76.8799 162.484 76.8799C163.51 76.8799 164.311 76.4893 164.887 75.708C165.463 74.917 165.751 73.6572 165.751 71.9287C165.751 70.4541 165.463 69.3115 164.887 68.501C164.311 67.6904 163.5 67.2852 162.455 67.2852C161.42 67.2852 160.619 67.6904 160.053 68.501C159.486 69.3018 159.203 70.5469 159.203 72.2363ZM181.872 68.1201C181.296 68.042 180.788 68.0029 180.349 68.0029C178.747 68.0029 177.697 68.5449 177.199 69.6289V80H172.966V64.1504H176.965L177.082 66.04C177.932 64.585 179.108 63.8574 180.612 63.8574C181.081 63.8574 181.52 63.9209 181.931 64.0479L181.872 68.1201ZM183.11 71.9287C183.11 70.3564 183.413 68.9551 184.018 67.7246C184.624 66.4941 185.493 65.542 186.626 64.8682C187.768 64.1943 189.092 63.8574 190.596 63.8574C192.734 63.8574 194.477 64.5117 195.825 65.8203C197.183 67.1289 197.939 68.9062 198.096 71.1523L198.125 72.2363C198.125 74.668 197.446 76.6211 196.089 78.0957C194.731 79.5605 192.91 80.293 190.625 80.293C188.34 80.293 186.514 79.5605 185.146 78.0957C183.789 76.6309 183.11 74.6387 183.11 72.1191V71.9287ZM187.344 72.2363C187.344 73.7402 187.627 74.8926 188.193 75.6934C188.76 76.4844 189.57 76.8799 190.625 76.8799C191.65 76.8799 192.451 76.4893 193.027 75.708C193.603 74.917 193.892 73.6572 193.892 71.9287C193.892 70.4541 193.603 69.3115 193.027 68.501C192.451 67.6904 191.641 67.2852 190.596 67.2852C189.56 67.2852 188.76 67.6904 188.193 68.501C187.627 69.3018 187.344 70.5469 187.344 72.2363ZM205.003 64.1504L205.135 65.9814C206.267 64.5654 207.786 63.8574 209.69 63.8574C211.37 63.8574 212.62 64.3506 213.44 65.3369C214.261 66.3232 214.681 67.7979 214.7 69.7607V80H210.467V69.8633C210.467 68.9648 210.271 68.3154 209.881 67.915C209.49 67.5049 208.841 67.2998 207.933 67.2998C206.741 67.2998 205.848 67.8076 205.252 68.8232V80H201.018V64.1504H205.003ZM227.481 80C227.286 79.6191 227.144 79.1455 227.057 78.5791C226.031 79.7217 224.698 80.293 223.058 80.293C221.505 80.293 220.216 79.8438 219.19 78.9453C218.175 78.0469 217.667 76.9141 217.667 75.5469C217.667 73.8672 218.287 72.5781 219.527 71.6797C220.777 70.7812 222.579 70.3271 224.933 70.3174H226.881V69.4092C226.881 68.6768 226.69 68.0908 226.309 67.6514C225.938 67.2119 225.348 66.9922 224.537 66.9922C223.824 66.9922 223.263 67.1631 222.852 67.5049C222.452 67.8467 222.252 68.3154 222.252 68.9111H218.018C218.018 67.9932 218.302 67.1436 218.868 66.3623C219.434 65.5811 220.235 64.9707 221.27 64.5312C222.306 64.082 223.468 63.8574 224.757 63.8574C226.71 63.8574 228.258 64.3506 229.4 65.3369C230.553 66.3135 231.129 67.6904 231.129 69.4678V76.3379C231.139 77.8418 231.349 78.9795 231.759 79.751V80H227.481ZM223.98 77.0557C224.605 77.0557 225.182 76.9189 225.709 76.6455C226.236 76.3623 226.627 75.9863 226.881 75.5176V72.793H225.299C223.18 72.793 222.052 73.5254 221.915 74.9902L221.9 75.2393C221.9 75.7666 222.086 76.2012 222.457 76.543C222.828 76.8848 223.336 77.0557 223.98 77.0557ZM240.453 74.8291L243.397 64.1504H247.821L242.474 80H238.432L233.085 64.1504H237.509L240.453 74.8291ZM254.538 80H250.29V64.1504H254.538V80ZM250.041 60.0488C250.041 59.4141 250.251 58.8916 250.671 58.4814C251.1 58.0713 251.681 57.8662 252.414 57.8662C253.137 57.8662 253.713 58.0713 254.142 58.4814C254.572 58.8916 254.787 59.4141 254.787 60.0488C254.787 60.6934 254.567 61.2207 254.128 61.6309C253.698 62.041 253.127 62.2461 252.414 62.2461C251.701 62.2461 251.125 62.041 250.685 61.6309C250.256 61.2207 250.041 60.6934 250.041 60.0488ZM267.319 68.1201C266.743 68.042 266.235 68.0029 265.796 68.0029C264.194 68.0029 263.144 68.5449 262.646 69.6289V80H258.413V64.1504H262.412L262.529 66.04C263.379 64.585 264.555 63.8574 266.059 63.8574C266.528 63.8574 266.968 63.9209 267.378 64.0479L267.319 68.1201ZM279.236 78.3887C278.191 79.6582 276.746 80.293 274.9 80.293C273.201 80.293 271.902 79.8047 271.004 78.8281C270.115 77.8516 269.661 76.4209 269.641 74.5361V64.1504H273.875V74.3896C273.875 76.04 274.627 76.8652 276.131 76.8652C277.566 76.8652 278.553 76.3672 279.09 75.3711V64.1504H283.338V80H279.353L279.236 78.3887ZM295.489 75.6201C295.489 75.1025 295.23 74.6973 294.713 74.4043C294.205 74.1016 293.385 73.833 292.252 73.5986C288.482 72.8076 286.597 71.2061 286.597 68.7939C286.597 67.3877 287.178 66.2158 288.341 65.2783C289.512 64.3311 291.041 63.8574 292.926 63.8574C294.937 63.8574 296.544 64.3311 297.745 65.2783C298.956 66.2256 299.561 67.4561 299.561 68.9697H295.328C295.328 68.3643 295.133 67.8662 294.742 67.4756C294.351 67.0752 293.741 66.875 292.911 66.875C292.198 66.875 291.646 67.0361 291.256 67.3584C290.865 67.6807 290.67 68.0908 290.67 68.5889C290.67 69.0576 290.889 69.4385 291.329 69.7314C291.778 70.0146 292.53 70.2637 293.585 70.4785C294.639 70.6836 295.528 70.918 296.251 71.1816C298.487 72.002 299.605 73.4229 299.605 75.4443C299.605 76.8896 298.985 78.0615 297.745 78.96C296.505 79.8486 294.903 80.293 292.94 80.293C291.612 80.293 290.43 80.0586 289.395 79.5898C288.37 79.1113 287.564 78.4619 286.978 77.6416C286.392 76.8115 286.099 75.918 286.099 74.9609H290.113C290.152 75.7129 290.43 76.2891 290.948 76.6895C291.466 77.0898 292.159 77.29 293.028 77.29C293.839 77.29 294.449 77.1387 294.859 76.8359C295.279 76.5234 295.489 76.1182 295.489 75.6201Z" fill="#25282B"/>
<path d="M241.428 55H235.58V53.8398L238.34 50.8984C238.719 50.4844 238.998 50.123 239.178 49.8145C239.361 49.5059 239.453 49.2129 239.453 48.9355C239.453 48.5566 239.357 48.2598 239.166 48.0449C238.975 47.8262 238.701 47.7168 238.346 47.7168C237.963 47.7168 237.66 47.8496 237.438 48.1152C237.219 48.377 237.109 48.7227 237.109 49.1523H235.41C235.41 48.6328 235.533 48.1582 235.779 47.7285C236.029 47.2988 236.381 46.9629 236.834 46.7207C237.287 46.4746 237.801 46.3516 238.375 46.3516C239.254 46.3516 239.936 46.5625 240.42 46.9844C240.908 47.4062 241.152 48.002 241.152 48.7715C241.152 49.1934 241.043 49.623 240.824 50.0605C240.605 50.498 240.23 51.0078 239.699 51.5898L237.76 53.6348H241.428V55ZM248.587 51.4727C248.587 52.6523 248.343 53.5547 247.854 54.1797C247.366 54.8047 246.651 55.1172 245.71 55.1172C244.78 55.1172 244.069 54.8105 243.577 54.1973C243.085 53.584 242.833 52.7051 242.821 51.5605V49.9902C242.821 48.7988 243.067 47.8945 243.56 47.2773C244.056 46.6602 244.769 46.3516 245.698 46.3516C246.628 46.3516 247.339 46.6582 247.831 47.2715C248.323 47.8809 248.575 48.7578 248.587 49.9023V51.4727ZM246.894 49.75C246.894 49.043 246.796 48.5293 246.601 48.209C246.409 47.8848 246.108 47.7227 245.698 47.7227C245.3 47.7227 245.005 47.877 244.813 48.1855C244.626 48.4902 244.526 48.9688 244.515 49.6211V51.6953C244.515 52.3906 244.608 52.9082 244.796 53.248C244.987 53.584 245.292 53.752 245.71 53.752C246.124 53.752 246.423 53.5898 246.606 53.2656C246.79 52.9414 246.886 52.4453 246.894 51.7773V49.75ZM254.223 55H252.529V48.4727L250.508 49.0996V47.7227L254.041 46.457H254.223V55ZM261.335 51.5898C260.893 52.0234 260.378 52.2402 259.788 52.2402C259.034 52.2402 258.431 51.9824 257.977 51.4668C257.524 50.9473 257.298 50.248 257.298 49.3691C257.298 48.8105 257.419 48.2988 257.661 47.834C257.907 47.3652 258.249 47.002 258.686 46.7441C259.124 46.4824 259.616 46.3516 260.163 46.3516C260.726 46.3516 261.226 46.4922 261.663 46.7734C262.101 47.0547 262.44 47.459 262.683 47.9863C262.925 48.5137 263.048 49.1172 263.052 49.7969V50.4238C263.052 51.8457 262.698 52.9629 261.991 53.7754C261.284 54.5879 260.282 55.0215 258.985 55.0762L258.569 55.082V53.6699L258.944 53.6641C260.417 53.5977 261.214 52.9062 261.335 51.5898ZM260.204 50.9453C260.477 50.9453 260.712 50.875 260.907 50.7344C261.106 50.5938 261.257 50.4238 261.358 50.2246V49.5273C261.358 48.9531 261.249 48.5078 261.03 48.1914C260.811 47.875 260.518 47.7168 260.151 47.7168C259.811 47.7168 259.532 47.873 259.313 48.1855C259.095 48.4941 258.985 48.8828 258.985 49.3516C258.985 49.8164 259.091 50.1992 259.302 50.5C259.517 50.7969 259.817 50.9453 260.204 50.9453ZM268.002 52.0293H264.703V50.6641H268.002V52.0293ZM271.294 48.6602L271.347 49.3926C271.8 48.8262 272.407 48.543 273.169 48.543C273.841 48.543 274.341 48.7402 274.669 49.1348C274.997 49.5293 275.165 50.1191 275.173 50.9043V55H273.479V50.9453C273.479 50.5859 273.401 50.3262 273.245 50.166C273.089 50.002 272.829 49.9199 272.466 49.9199C271.989 49.9199 271.632 50.123 271.393 50.5293V55H269.7V48.6602H271.294ZM283.644 52.1582C283.578 53.0762 283.238 53.7988 282.625 54.3262C282.015 54.8535 281.211 55.1172 280.211 55.1172C279.117 55.1172 278.256 54.75 277.627 54.0156C277.002 53.2773 276.689 52.2656 276.689 50.9805V50.459C276.689 49.6387 276.834 48.916 277.123 48.291C277.412 47.666 277.824 47.1875 278.359 46.8555C278.898 46.5195 279.523 46.3516 280.234 46.3516C281.219 46.3516 282.012 46.6152 282.613 47.1426C283.215 47.6699 283.562 48.4102 283.656 49.3633H281.898C281.855 48.8125 281.701 48.4141 281.435 48.168C281.174 47.918 280.773 47.793 280.234 47.793C279.648 47.793 279.209 48.0039 278.916 48.4258C278.627 48.8438 278.478 49.4941 278.471 50.377V51.0215C278.471 51.9434 278.609 52.6172 278.887 53.043C279.168 53.4688 279.609 53.6816 280.211 53.6816C280.754 53.6816 281.158 53.5586 281.424 53.3125C281.693 53.0625 281.848 52.6777 281.887 52.1582H283.644ZM284.798 51.7715C284.798 51.1426 284.919 50.582 285.161 50.0898C285.403 49.5977 285.751 49.2168 286.204 48.9473C286.661 48.6777 287.19 48.543 287.792 48.543C288.647 48.543 289.345 48.8047 289.884 49.3281C290.427 49.8516 290.729 50.5625 290.792 51.4609L290.804 51.8945C290.804 52.8672 290.532 53.6484 289.989 54.2383C289.446 54.8242 288.718 55.1172 287.804 55.1172C286.889 55.1172 286.159 54.8242 285.612 54.2383C285.069 53.6523 284.798 52.8555 284.798 51.8477V51.7715ZM286.491 51.8945C286.491 52.4961 286.604 52.957 286.831 53.2773C287.057 53.5938 287.382 53.752 287.804 53.752C288.214 53.752 288.534 53.5957 288.764 53.2832C288.995 52.9668 289.11 52.4629 289.11 51.7715C289.11 51.1816 288.995 50.7246 288.764 50.4004C288.534 50.0762 288.21 49.9141 287.792 49.9141C287.378 49.9141 287.057 50.0762 286.831 50.4004C286.604 50.7207 286.491 51.2188 286.491 51.8945ZM295.484 52.8848L297.418 46.4688H299.375L296.404 55H294.57L291.611 46.4688H293.562L295.484 52.8848Z" fill="#25282B"/>
<defs>
<filter id="filter0_d" x="-5" y="0" width="142" height="142" filterUnits="userSpaceOnUse" color-interpolation-filters="sRGB">
<feFlood flood-opacity="0" result="BackgroundImageFix"/>
<feColorMatrix in="SourceAlpha" type="matrix" values="0 0 0 0 0 0 0 0 0 0 0 0 0 0 0 0 0 0 127 0"/>
<feOffset dy="2"/>
<feGaussianBlur stdDeviation="12.5"/>
<feColorMatrix type="matrix" values="0 0 0 0 0 0 0 0 0 0 0 0 0 0 0 0 0 0 0.15 0"/>
<feBlend mode="normal" in2="BackgroundImageFix" result="effect1_dropShadow"/>
<feBlend mode="normal" in="SourceGraphic" in2="effect1_dropShadow" result="shape"/>
</filter>
</defs>
</svg>
