<svg width="512" height="512" viewBox="0 0 512 512" fill="none" xmlns="http://www.w3.org/2000/svg">
<g clip-path="url(#clip0)">
<rect width="512" height="512" fill="white"/>
<mask id="mask0" mask-type="alpha" maskUnits="userSpaceOnUse" x="0" y="0" width="512" height="512">
<rect width="512" height="512" rx="89.0435" fill="white"/>
</mask>
<g mask="url(#mask0)">
<path d="M444.612 106.422C424.367 84.6411 399.749 67.3868 372.373 55.7915C344.996 44.1961 315.481 38.5218 285.764 39.1409C204.645 41.3079 132.475 90.0424 71.3274 143.383C10.1797 196.724 -47.0899 257.175 -120.558 291.57C-211.909 334.538 -316.058 331.722 -417.938 319.713L161.152 1574.07L794.083 1281.86C788.448 1267.81 778.901 1255.67 766.576 1246.88C745.019 1231.33 718.615 1224.37 694.33 1213.56C645.541 1191.4 605.422 1153.75 580.192 1106.45C570.016 1087.58 562.476 1067.39 557.782 1046.47C553.388 1025.24 550.945 1003.65 550.483 981.975C548.201 920.092 554.303 856.841 527.822 801.718C519.359 784.811 508.861 769.002 496.56 754.644C496.144 754.084 495.698 753.547 495.222 753.037C495.031 752.775 494.824 752.525 494.6 752.291C489.606 746.292 484.414 740.464 479.157 734.667C478.625 734.118 478.141 733.586 477.642 733.022C476.411 731.643 475.116 730.215 473.896 728.95L462.938 717.083L462.157 716.251C459.958 713.81 457.726 711.384 455.493 708.957C455.493 708.957 455.418 708.793 455.388 708.728C452.158 705.173 448.961 701.603 445.782 697.985C441.822 704.651 436.063 710.064 429.166 713.602C413.618 721.297 394.611 717.198 379.208 709.21C363.806 701.222 350.516 689.637 335.252 681.347C323.797 675.113 311.362 670.801 299.819 664.806C288.275 658.811 277.152 650.715 271.006 639.209C262.234 622.876 264.94 602.674 271.142 585.229C277.344 567.783 286.755 551.439 291.327 533.475C296.652 512.581 295.76 488.715 309.502 472.12C323.244 455.525 347.754 451.759 369.678 452.285C388.639 452.67 408.3 454.917 426.403 450.176C427.337 448.155 428.318 446.153 429.3 444.15C456.824 387.736 491.262 332.621 498.303 270.288C501.391 240.737 498.205 210.864 488.952 182.625C479.7 154.386 464.59 128.419 444.612 106.422Z" fill="#F2F4F8"/>
<path d="M323.002 337.073C286.041 391.366 233.283 433.205 194.964 486.537C158.417 537.341 136.47 606.954 162.998 662.61C164.253 665.329 165.539 668.113 167.201 670.683C170.012 675.57 173.178 680.244 176.675 684.666C181.12 690.383 186.039 695.715 191.38 700.604C193.213 702.34 195.146 704.031 197.095 705.674C210.471 716.598 224.876 726.196 240.108 734.331L247.311 738.237C251.596 740.55 255.898 742.815 260.265 745.05L265.489 747.764C286.989 758.897 308.716 770.004 327.902 783.953C329.527 785.15 331.182 786.413 332.774 787.625C339.068 792.409 345.02 797.627 350.586 803.241L352.884 805.637C390.884 846.144 402.832 904.281 407.833 959.585C412.835 1014.89 412.897 1071.88 433.078 1123.59C465.395 1206.49 551.994 1265.05 640.961 1264.23C664.699 1264.04 689.009 1259.93 712.348 1264.81C731.471 1268.81 750.483 1281.09 757.691 1298.43L-245.04 1631.67L-355.275 455.358C-326.65 456.245 -298.039 453.223 -270.234 446.374C-176.58 423.362 -95.9255 362.644 -31.2153 291.129C3.37658 252.949 34.2202 211.294 71.3488 175.597C108.477 139.901 153.432 109.889 204.176 101.362C254.92 92.8357 312.172 110.19 341.286 152.694C378.393 206.923 359.979 282.812 323.002 337.073Z" fill="white"/>
<path d="M53.5605 397.175C66.2269 417.988 61.4074 450.728 83.0511 461.914C101.234 471.28 122.705 456.202 134.309 439.362C145.913 422.522 154.731 401.883 173.109 392.921C191.487 383.96 216.801 388.644 231.15 373.795C242.068 362.436 241.503 344.182 236.855 329.123C232.206 314.065 224.158 299.901 222.272 284.203C220.09 266.059 226.362 247.905 225.764 229.666C225.167 211.426 213.034 190.565 194.819 191.623C169.752 193.064 160.306 232.47 135.262 233.701C104.773 235.181 97.7255 215.27 74.8845 246.993C60.6448 266.639 55.6647 277.958 34.8477 291.701C17.8174 302.98 5.17455 308.022 5.13694 331.68C5.1557 366.041 38.3291 372.182 53.5605 397.175Z" fill="#F2F4F8"/>
<path d="M207.048 105.095C209.887 111.416 215.975 115.224 222.396 115.431C224.116 120.96 225.853 127.384 227.28 134.325C213.996 137.972 201.575 143.719 190.41 151.222C187.284 146.361 184.794 141.418 182.925 137.219C185.991 134.466 186.85 129.833 184.729 126.043C182.276 121.661 176.783 120.076 172.459 122.501C168.135 124.927 166.618 130.446 169.07 134.826C170.829 137.969 174.156 139.641 177.493 139.456C179.433 144.176 181.523 150.212 182.827 156.735C173.683 163.913 165.558 172.33 158.684 181.735C149.045 177.429 140.206 172.593 132.725 168.08C132.352 169.436 131.876 170.767 131.243 172.053C129.807 174.968 127.806 177.417 125.445 179.366C132.69 184.209 140.873 190.246 148.929 197.348C143.697 207.26 139.711 217.937 137.247 229.2C129.346 229.507 121.549 228.483 115.498 227.31C114.999 223.214 111.703 219.851 107.386 219.417C102.399 218.917 97.9567 222.516 97.4661 227.456C96.9755 232.398 100.623 236.809 105.61 237.308C109.189 237.668 112.462 235.896 114.22 233.052C120.268 234.407 128.034 236.699 135.335 240.453C134.74 245.181 134.376 249.984 134.314 254.862C134.199 263.961 135.063 272.841 136.773 281.42C128.014 285.008 119.444 287.697 112.07 289.67C107.776 283.003 99.2475 279.971 91.4287 282.852C82.3919 286.181 77.7388 296.14 81.034 305.094C84.3292 314.048 94.3249 318.608 103.362 315.277C109.853 312.884 114.061 307.07 114.708 300.667C122.133 298.913 131.097 297.229 140.721 296.335C144.679 308.309 150.362 319.497 157.493 329.603C152.808 334.354 147.701 338.337 143.399 341.336C140.12 338.834 135.416 338.856 132.1 341.65C128.267 344.882 127.747 350.583 130.942 354.383C134.137 358.184 139.833 358.644 143.668 355.412C146.418 353.092 147.429 349.507 146.62 346.26C151.093 343.33 156.957 339.968 163.475 337.414C170.475 345.863 178.541 353.391 187.483 359.787C182.109 371.226 175.836 381.657 170.099 390.214C171.427 390.657 172.727 391.217 173.977 391.914C176.772 393.476 179.139 395.59 180.992 398.076C187.329 389.517 195.502 379.638 205.202 370.405C214.227 374.848 223.854 378.257 233.942 380.457C233.729 385.504 233.105 390.262 232.405 394.267C228.324 394.833 225.028 398.192 224.675 402.52C224.266 407.523 227.94 411.913 232.88 412.323C237.821 412.733 242.158 409.007 242.567 404.004C242.86 400.413 241.033 397.165 238.161 395.452C238.975 391.476 240.177 386.754 241.92 381.899C247.591 382.758 253.376 383.273 259.271 383.353C265.586 383.438 271.796 383.044 277.877 382.232C282.117 392.838 285.055 403.402 287.052 412.242C280.236 416.273 276.885 424.689 279.458 432.628C282.433 441.806 292.189 446.862 301.248 443.922C310.306 440.983 315.238 431.16 312.261 421.981C310.123 415.389 304.483 410.943 298.121 410.041C296.403 401.254 294.868 390.354 294.608 378.804C313.744 373.529 331.082 363.88 345.454 350.953C351.924 354.877 357.679 359.377 362.192 363.297C360.249 367.866 361.677 373.361 365.917 376.411C370.818 379.939 377.61 378.863 381.088 374.012C384.565 369.16 383.412 362.368 378.511 358.84C374.99 356.307 370.499 356.16 366.958 358.069C362.747 354.192 357.818 349.132 353.332 343.242C367.274 328.324 377.66 310.015 383.119 289.655C391.118 289.999 398.585 290.795 405.225 291.764C405.036 290.518 404.927 289.251 404.943 287.962C404.958 286.812 405.058 285.65 405.241 284.508C405.686 281.721 406.628 279.141 407.927 276.805C401.394 274.847 394.216 272.124 386.879 268.358C387.181 265.037 387.397 261.692 387.44 258.301C387.645 242.137 384.787 226.654 379.463 212.363C384.844 207.115 390.888 202.827 395.865 199.719C399.014 202.384 403.713 202.601 407.166 199.976C411.159 196.943 411.963 191.277 408.965 187.318C405.966 183.361 400.299 182.613 396.308 185.646C393.444 187.823 392.253 191.352 392.897 194.636C388.234 197.362 382.135 200.46 375.416 202.685C367.673 186.23 356.506 171.696 342.816 160.024C344.854 153.539 347.068 147.472 349.241 142.033C347.851 141.879 346.464 141.601 345.096 141.181C342.034 140.237 339.288 138.65 336.967 136.604C334.986 140.959 332.693 145.659 330.087 150.516C310.632 137.743 287.46 130.153 262.487 129.813C255.118 129.713 247.901 130.282 240.862 131.397C237.731 124.55 235.182 117.917 233.163 112.041C239.501 107.293 241.922 98.563 238.503 90.9483C234.552 82.1477 224.306 78.1798 215.622 82.0871C206.934 85.9925 203.097 96.2945 207.048 105.095ZM285.309 209.053C282.778 211.011 279.139 210.544 277.182 208.006C275.224 205.469 275.688 201.825 278.219 199.866C280.751 197.908 284.389 198.375 286.347 200.913C288.304 203.448 287.841 207.094 285.309 209.053ZM256.595 245.516C254.637 242.979 255.101 239.335 257.632 237.376C260.164 235.418 263.802 235.885 265.76 238.422C267.717 240.96 267.254 244.604 264.722 246.562C262.191 248.521 258.552 248.052 256.595 245.516ZM294.084 245.047C290.483 247.836 285.303 247.169 282.518 243.559C279.731 239.95 280.392 234.762 283.993 231.975C287.594 229.186 292.774 229.853 295.559 233.463C298.346 237.072 297.685 242.26 294.084 245.047ZM241.562 229.752C244.349 233.362 243.688 238.55 240.087 241.337C236.486 244.125 231.306 243.458 228.521 239.849C225.734 236.24 226.395 231.054 229.996 228.265C233.597 225.476 238.775 226.143 241.562 229.752ZM209.092 245.678C202.14 251.059 192.146 249.773 186.768 242.807C181.39 235.839 182.665 225.829 189.615 220.448C196.567 215.067 206.562 216.353 211.94 223.319C217.319 230.287 216.044 240.297 209.092 245.678ZM196.992 186.216C196.963 188.518 195.077 190.357 192.781 190.325C190.483 190.294 188.646 188.403 188.675 186.103C188.704 183.802 190.59 181.963 192.886 181.994C195.184 182.025 197.021 183.915 196.992 186.216ZM257.096 206.06C255.138 203.523 255.602 199.879 258.133 197.92C260.665 195.962 264.303 196.429 266.261 198.967C268.218 201.504 267.755 205.148 265.223 207.106C262.691 209.065 259.053 208.596 257.096 206.06ZM225.571 207.022C224.166 205.201 224.499 202.584 226.316 201.178C228.133 199.77 230.746 200.108 232.151 201.928C233.556 203.749 233.223 206.367 231.406 207.772C229.589 209.178 226.978 208.843 225.571 207.022ZM232.496 174.68C233.901 176.501 233.569 179.118 231.752 180.524C229.935 181.93 227.322 181.594 225.917 179.773C224.512 177.952 224.845 175.335 226.662 173.929C228.479 172.522 231.091 172.857 232.496 174.68ZM205.083 169.213C205.047 172.007 202.758 174.24 199.969 174.203C197.179 174.165 194.948 171.868 194.983 169.076C195.018 166.281 197.309 164.048 200.097 164.086C202.885 164.124 205.118 166.419 205.083 169.213ZM230.031 160.785C227.825 162.493 224.651 162.085 222.945 159.873C221.238 157.66 221.642 154.483 223.849 152.776C226.055 151.068 229.229 151.475 230.935 153.688C232.642 155.899 232.238 159.076 230.031 160.785ZM171.443 185.869C171.472 183.568 173.358 181.729 175.654 181.76C177.952 181.791 179.789 183.683 179.76 185.982C179.731 188.284 177.845 190.123 175.549 190.091C173.253 190.062 171.414 188.171 171.443 185.869ZM154.749 225.229C157.539 225.267 159.771 227.563 159.735 230.356C159.7 233.15 157.411 235.383 154.621 235.345C151.831 235.307 149.6 233.011 149.635 230.218C149.669 227.424 151.96 225.191 154.749 225.229ZM143.327 247.248C143.356 244.946 145.243 243.108 147.539 243.139C149.836 243.17 151.674 245.061 151.644 247.361C151.615 249.662 149.729 251.501 147.433 251.47C145.135 251.439 143.298 249.548 143.327 247.248ZM306.357 261.211C311.735 268.179 310.46 278.189 303.508 283.57C296.556 288.95 286.561 287.665 281.183 280.698C275.806 273.73 277.081 263.72 284.033 258.34C290.983 252.959 300.977 254.244 306.357 261.211ZM153.437 293.518C150.237 293.474 147.677 290.841 147.717 287.636C147.758 284.431 150.385 281.869 153.584 281.912C156.784 281.956 159.345 284.589 159.304 287.794C159.263 290.999 156.637 293.561 153.437 293.518ZM179.389 285.611C174.836 285.549 171.191 281.801 171.249 277.241C171.307 272.681 175.046 269.033 179.599 269.095C184.151 269.157 187.796 272.905 187.738 277.465C187.68 282.025 183.942 285.673 179.389 285.611ZM247.773 258.86C252.326 258.921 255.971 262.669 255.913 267.23C255.855 271.79 252.116 275.437 247.564 275.376C243.011 275.314 239.366 271.566 239.424 267.006C239.482 262.445 243.221 258.798 247.773 258.86ZM229.362 277.664C231.069 279.875 230.665 283.054 228.457 284.761C226.251 286.469 223.078 286.061 221.371 283.849C219.664 281.638 220.068 278.459 222.276 276.752C224.483 275.044 227.655 275.453 229.362 277.664ZM150.251 263.562C150.292 260.357 152.919 257.795 156.118 257.838C159.318 257.882 161.879 260.515 161.838 263.72C161.797 266.925 159.171 269.487 155.971 269.444C152.771 269.401 150.211 266.767 150.251 263.562ZM162.248 301.674C162.288 298.469 164.915 295.906 168.115 295.95C171.314 295.993 173.875 298.626 173.834 301.831C173.794 305.036 171.167 307.599 167.967 307.555C164.768 307.512 162.207 304.879 162.248 301.674ZM183.843 327.724C185.66 326.318 188.273 326.653 189.678 328.474C191.083 330.295 190.75 332.912 188.933 334.318C187.116 335.724 184.503 335.388 183.098 333.567C181.693 331.746 182.026 329.129 183.843 327.724ZM298.227 345.237C295.44 341.627 296.101 336.44 299.702 333.653C303.303 330.864 308.483 331.531 311.268 335.14C314.055 338.75 313.394 343.937 309.793 346.724C306.192 349.511 301.012 348.846 298.227 345.237ZM275.608 331.984C273.651 329.447 274.114 325.803 276.646 323.844C279.177 321.886 282.816 322.353 284.773 324.891C286.731 327.428 286.267 331.072 283.736 333.03C281.206 334.989 277.566 334.52 275.608 331.984ZM264.687 322.941C266.645 325.478 266.181 329.122 263.65 331.081C261.118 333.039 257.48 332.572 255.522 330.035C253.565 327.497 254.028 323.853 256.56 321.895C259.09 319.936 262.728 320.405 264.687 322.941ZM224.742 325.154C226.559 323.748 229.172 324.084 230.577 325.905C231.982 327.726 231.649 330.343 229.833 331.748C228.016 333.154 225.403 332.819 223.998 330.998C222.593 329.177 222.926 326.56 224.742 325.154ZM204.916 346.304C207.214 346.335 209.051 348.226 209.022 350.526C208.992 352.827 207.106 354.666 204.81 354.635C202.512 354.604 200.675 352.712 200.704 350.413C200.732 348.111 202.618 346.272 204.916 346.304ZM264.186 362.399C266.144 364.936 265.68 368.58 263.149 370.539C260.617 372.497 256.979 372.03 255.021 369.492C253.064 366.955 253.527 363.311 256.059 361.353C258.591 359.394 262.227 359.861 264.186 362.399ZM242.558 309.593C240.601 307.056 241.064 303.412 243.596 301.453C246.127 299.495 249.766 299.962 251.723 302.5C253.68 305.037 253.217 308.681 250.685 310.639C248.154 312.598 244.516 312.129 242.558 309.593ZM279.048 308.719C275.447 311.508 270.268 310.841 267.482 307.232C264.695 303.622 265.356 298.434 268.958 295.647C272.559 292.859 277.738 293.526 280.524 297.135C283.311 300.744 282.65 305.93 279.048 308.719ZM333.382 240.286C326.43 245.666 316.435 244.381 311.057 237.413C305.68 230.445 306.955 220.435 313.905 215.054C320.857 209.673 330.851 210.959 336.229 217.927C341.609 224.895 340.334 234.905 333.382 240.286ZM373.45 220.082C372.793 223.218 369.721 225.225 366.589 224.564C363.458 223.904 361.452 220.825 362.109 217.689C362.765 214.553 365.838 212.546 368.969 213.207C372.1 213.869 374.106 216.946 373.45 220.082ZM350.486 177.923C353.216 178.5 354.965 181.183 354.392 183.918C353.818 186.653 351.141 188.401 348.41 187.824C345.679 187.248 343.932 184.565 344.505 181.83C345.08 179.097 347.757 177.347 350.486 177.923ZM336.235 193.768C338.482 194.243 339.923 196.452 339.451 198.705C338.978 200.958 336.774 202.397 334.525 201.922C332.275 201.447 330.836 199.238 331.309 196.985C331.781 194.735 333.987 193.295 336.235 193.768ZM326.476 167.134C328.259 169.285 327.961 172.474 325.815 174.258C323.669 176.041 320.484 175.741 318.703 173.59C316.921 171.439 317.218 168.248 319.364 166.466C321.51 164.683 324.694 164.981 326.476 167.134ZM303.441 167.047C301.973 165.275 302.218 162.648 303.986 161.18C305.754 159.713 308.377 159.96 309.843 161.731C311.311 163.503 311.065 166.13 309.298 167.598C307.53 169.065 304.907 168.818 303.441 167.047ZM288.662 143.091C290.13 144.863 289.884 147.49 288.117 148.957C286.349 150.424 283.726 150.178 282.26 148.406C280.792 146.634 281.037 144.007 282.805 142.54C284.573 141.073 287.196 141.319 288.662 143.091ZM262.64 161.58C265.171 159.621 268.81 160.088 270.767 162.626C272.725 165.163 272.261 168.807 269.73 170.766C267.198 172.724 263.56 172.257 261.602 169.72C259.645 167.184 260.108 163.54 262.64 161.58Z" fill="#FFA500"/>
<path d="M124.29 170.777C125.492 168.341 126.12 165.737 126.154 163.037C126.244 155.991 122.177 149.404 115.79 146.252C106.652 141.741 95.5956 145.404 91.1425 154.418C89.9403 156.854 89.3126 159.459 89.2782 162.158C89.1884 169.204 93.2551 175.792 99.6419 178.944C108.78 183.453 119.838 179.791 124.29 170.777Z" fill="#FFA500"/>
<path d="M359.889 132.499C364.213 130.179 367.392 126.303 368.842 121.583C369.367 119.87 369.645 118.106 369.667 116.335C369.771 108.234 364.484 100.927 356.814 98.5701C347.194 95.6161 336.938 101.129 333.949 110.86C333.424 112.573 333.146 114.337 333.124 116.108C333.021 124.209 338.307 131.515 345.977 133.871C350.633 135.303 355.575 134.815 359.889 132.499Z" fill="#FFA500"/>
<path d="M412.31 282.984C412.161 283.919 412.079 284.87 412.067 285.81C411.945 295.415 419.113 303.826 428.743 305.374C439.504 307.103 449.644 299.871 451.345 289.255C451.495 288.32 451.576 287.367 451.588 286.429C451.711 276.822 444.543 268.411 434.913 266.865C424.152 265.136 414.013 272.366 412.31 282.984Z" fill="#FFA500"/>
<path d="M179.654 423.64C181.159 420.94 181.976 417.894 182.015 414.831C182.101 408.09 178.53 401.882 172.697 398.629C168.443 396.258 163.508 395.704 158.801 397.066C154.088 398.433 150.168 401.559 147.765 405.872C146.26 408.572 145.443 411.618 145.404 414.682C145.318 421.424 148.888 427.632 154.72 430.882C163.511 435.782 174.698 432.531 179.654 423.64Z" fill="#FFA500"/>
</g>
</g>
<defs>
<clipPath id="clip0">
<rect width="512" height="512" fill="white"/>
</clipPath>
</defs>
</svg>
